<?xml version="1.0" encoding="utf-8"?>
<!-- Generator: Adobe Illustrator 16.0.3, SVG Export Plug-In . SVG Version: 6.00 Build 0)  -->
<!DOCTYPE svg PUBLIC "-//W3C//DTD SVG 1.1//EN" "http://www.w3.org/Graphics/SVG/1.1/DTD/svg11.dtd">
<svg version="1.1" id="Ebene_1" xmlns="http://www.w3.org/2000/svg" xmlns:xlink="http://www.w3.org/1999/xlink" x="0px" y="0px"
	 width="296px" height="85.5px" viewBox="0 0 296 85.5" enable-background="new 0 0 296 85.5" xml:space="preserve">
<polygon fill="#27357D" points="110.881,41.586 132.181,4.693 110.881,4.693 100.231,23.139 "/>
<polygon fill="#27357D" points="4.373,41.585 25.673,41.585 36.324,23.139 25.673,4.692 "/>
<polygon fill="#27357D" points="68.275,41.586 78.925,23.139 68.275,4.693 57.625,23.139 "/>
<polygon fill="#4BA541" points="46.975,41.586 68.274,41.586 46.972,4.692 25.673,4.692 "/>
<polygon fill="#B66D32" points="68.275,4.693 89.575,4.693 110.881,41.586 89.575,41.586 "/>
<rect x="152.654" y="4.692" fill="#27357D" width="7.854" height="36.894"/>
<polygon fill="#27357D" points="173.328,11.606 163.917,11.606 163.906,4.692 190.677,4.692 190.677,11.606 181.238,11.606 
	181.238,41.585 173.328,41.585 "/>
<g>
	<defs>
		<rect id="SVGID_1_" x="-70.5" y="-62.039" width="446.997" height="357.539"/>
	</defs>
	<clipPath id="SVGID_2_">
		<use xlink:href="#SVGID_1_"  overflow="visible"/>
	</clipPath>
	<path clip-path="url(#SVGID_2_)" fill="#27357D" d="M190.196,23.167c0-11.34,8.573-19.083,19.359-19.083
		c8.408,0,13.109,4.425,15.709,9.016l-6.748,3.319c-1.55-2.987-4.867-5.366-8.961-5.366c-6.416,0-11.283,5.144-11.283,12.114
		c0,6.969,4.867,12.113,11.283,12.113c4.094,0,7.411-2.323,8.961-5.365l6.748,3.264c-2.655,4.591-7.301,9.071-15.709,9.071
		C198.77,42.25,190.196,34.506,190.196,23.167"/>
	<polygon clip-path="url(#SVGID_2_)" fill="#27357D" points="229.97,4.692 256.077,4.692 256.077,11.44 237.823,11.44 
		237.823,19.461 255.69,19.461 255.69,26.209 237.823,26.209 237.823,34.782 256.077,34.782 256.077,41.586 229.97,41.586 	"/>
	<path clip-path="url(#SVGID_2_)" fill="#27357D" d="M276.827,28.366h-5.753v13.22h-7.854V4.692h17.258
		c7.688,0,12.39,5.033,12.39,11.892c0,6.527-4.093,10.011-8.075,10.952l8.296,14.05h-9.015L276.827,28.366z M279.315,11.44h-8.241
		v10.178h8.241c3.153,0,5.532-1.991,5.532-5.089C284.848,13.432,282.469,11.44,279.315,11.44"/>
	<rect x="152.803" y="55.017" clip-path="url(#SVGID_2_)" fill="#27357D" width="0.378" height="7.888"/>
	
		<rect x="152.803" y="55.017" clip-path="url(#SVGID_2_)" fill="none" stroke="#27357D" stroke-width="0.425" stroke-miterlimit="10" width="0.378" height="7.888"/>
	<path clip-path="url(#SVGID_2_)" fill="#27357D" d="M159.154,58.919c0-1.194-0.592-1.549-1.479-1.549
		c-0.78,0-1.62,0.509-2.021,1.076v4.458h-0.355v-5.712h0.355v0.899c0.426-0.52,1.276-1.04,2.068-1.04
		c1.135,0,1.785,0.52,1.785,1.868v3.985h-0.354V58.919z"/>
	<path clip-path="url(#SVGID_2_)" fill="none" stroke="#27357D" stroke-width="0.425" stroke-miterlimit="10" d="M159.154,58.919
		c0-1.194-0.592-1.549-1.479-1.549c-0.78,0-1.62,0.509-2.021,1.076v4.458h-0.355v-5.712h0.355v0.899
		c0.426-0.52,1.276-1.04,2.068-1.04c1.135,0,1.785,0.52,1.785,1.868v3.985h-0.354V58.919z"/>
	<path clip-path="url(#SVGID_2_)" fill="#27357D" d="M161.664,61.899v-4.388h-0.946v-0.319h0.946v-1.561h0.354v1.561h1.16v0.319
		h-1.16v4.388c0,0.484,0.19,0.827,0.616,0.827c0.284,0,0.532-0.141,0.674-0.306l0.212,0.271c-0.224,0.213-0.46,0.354-0.886,0.354
		C161.972,63.045,161.664,62.608,161.664,61.899"/>
	<path clip-path="url(#SVGID_2_)" fill="none" stroke="#27357D" stroke-width="0.425" stroke-miterlimit="10" d="M161.664,61.899
		v-4.388h-0.946v-0.319h0.946v-1.561h0.354v1.561h1.16v0.319h-1.16v4.388c0,0.484,0.19,0.827,0.616,0.827
		c0.284,0,0.532-0.141,0.674-0.306l0.212,0.271c-0.224,0.213-0.46,0.354-0.886,0.354C161.972,63.045,161.664,62.608,161.664,61.899z
		"/>
	<path clip-path="url(#SVGID_2_)" fill="#27357D" d="M167.044,57.051c1.751,0,2.65,1.407,2.65,2.992v0.118h-4.932
		c0.035,1.396,0.945,2.566,2.399,2.566c0.805,0,1.455-0.295,1.988-0.864l0.213,0.225c-0.58,0.604-1.243,0.958-2.201,0.958
		c-1.655,0-2.801-1.265-2.801-3.003C164.361,58.387,165.507,57.051,167.044,57.051 M164.763,59.842h4.553
		c0-1.1-0.721-2.472-2.282-2.472C165.567,57.37,164.798,58.718,164.763,59.842"/>
	<path clip-path="url(#SVGID_2_)" fill="none" stroke="#27357D" stroke-width="0.425" stroke-miterlimit="10" d="M167.044,57.051
		c1.751,0,2.65,1.407,2.65,2.992v0.118h-4.932c0.035,1.396,0.945,2.566,2.399,2.566c0.805,0,1.455-0.295,1.988-0.864l0.213,0.225
		c-0.58,0.604-1.243,0.958-2.201,0.958c-1.655,0-2.801-1.265-2.801-3.003C164.361,58.387,165.507,57.051,167.044,57.051z
		 M164.763,59.842h4.553c0-1.1-0.721-2.472-2.282-2.472C165.567,57.37,164.798,58.718,164.763,59.842z"/>
	<path clip-path="url(#SVGID_2_)" fill="#27357D" d="M171.482,57.192h0.354v1.041c0.508-0.674,1.135-1.147,1.963-1.147v0.425
		c-0.105-0.011-0.177-0.011-0.284-0.011c-0.602,0-1.419,0.59-1.679,1.123v4.281h-0.354V57.192z"/>
	<path clip-path="url(#SVGID_2_)" fill="none" stroke="#27357D" stroke-width="0.425" stroke-miterlimit="10" d="M171.482,57.192
		h0.354v1.041c0.508-0.674,1.135-1.147,1.963-1.147v0.425c-0.105-0.011-0.177-0.011-0.284-0.011c-0.602,0-1.419,0.59-1.679,1.123
		v4.281h-0.354V57.192z"/>
	<path clip-path="url(#SVGID_2_)" fill="#27357D" d="M178.993,58.919c0-1.194-0.592-1.549-1.479-1.549
		c-0.78,0-1.62,0.509-2.021,1.076v4.458h-0.355v-5.712h0.355v0.899c0.426-0.52,1.275-1.04,2.068-1.04
		c1.136,0,1.785,0.52,1.785,1.868v3.985h-0.354V58.919z"/>
	<path clip-path="url(#SVGID_2_)" fill="none" stroke="#27357D" stroke-width="0.425" stroke-miterlimit="10" d="M178.993,58.919
		c0-1.194-0.592-1.549-1.479-1.549c-0.78,0-1.62,0.509-2.021,1.076v4.458h-0.355v-5.712h0.355v0.899
		c0.426-0.52,1.275-1.04,2.068-1.04c1.136,0,1.785,0.52,1.785,1.868v3.985h-0.354V58.919z"/>
	<path clip-path="url(#SVGID_2_)" fill="#27357D" d="M185.133,62.207c-0.532,0.58-1.172,0.839-1.977,0.839
		c-1.004,0-1.998-0.685-1.998-1.903c0-1.219,0.982-1.904,1.998-1.904c0.805,0,1.444,0.259,1.977,0.84v-1.29
		c0-0.922-0.733-1.419-1.608-1.419c-0.746,0-1.301,0.26-1.833,0.899l-0.273-0.236c0.557-0.651,1.148-0.982,2.106-0.982
		c1.123,0,1.962,0.568,1.962,1.727v4.127h-0.354V62.207z M185.133,60.433c-0.438-0.579-1.137-0.875-1.882-0.875
		c-1.04,0-1.702,0.698-1.702,1.585c0,0.887,0.662,1.584,1.702,1.584c0.745,0,1.443-0.295,1.882-0.875V60.433z"/>
	<path clip-path="url(#SVGID_2_)" fill="none" stroke="#27357D" stroke-width="0.425" stroke-miterlimit="10" d="M185.133,62.207
		c-0.532,0.58-1.172,0.839-1.977,0.839c-1.004,0-1.998-0.685-1.998-1.903c0-1.219,0.982-1.904,1.998-1.904
		c0.805,0,1.444,0.259,1.977,0.84v-1.29c0-0.922-0.733-1.419-1.608-1.419c-0.746,0-1.301,0.26-1.833,0.899l-0.273-0.236
		c0.557-0.651,1.148-0.982,2.106-0.982c1.123,0,1.962,0.568,1.962,1.727v4.127h-0.354V62.207z M185.133,60.433
		c-0.438-0.579-1.137-0.875-1.882-0.875c-1.04,0-1.702,0.698-1.702,1.585c0,0.887,0.662,1.584,1.702,1.584
		c0.745,0,1.443-0.295,1.882-0.875V60.433z"/>
	<path clip-path="url(#SVGID_2_)" fill="#27357D" d="M187.653,61.899v-4.388h-0.946v-0.319h0.946v-1.561h0.354v1.561h1.16v0.319
		h-1.16v4.388c0,0.484,0.19,0.827,0.616,0.827c0.284,0,0.532-0.141,0.674-0.306l0.212,0.271c-0.224,0.213-0.46,0.354-0.886,0.354
		C187.961,63.045,187.653,62.608,187.653,61.899"/>
	<path clip-path="url(#SVGID_2_)" fill="none" stroke="#27357D" stroke-width="0.425" stroke-miterlimit="10" d="M187.653,61.899
		v-4.388h-0.946v-0.319h0.946v-1.561h0.354v1.561h1.16v0.319h-1.16v4.388c0,0.484,0.19,0.827,0.616,0.827
		c0.284,0,0.532-0.141,0.674-0.306l0.212,0.271c-0.224,0.213-0.46,0.354-0.886,0.354C187.961,63.045,187.653,62.608,187.653,61.899z
		"/>
	<path clip-path="url(#SVGID_2_)" fill="#27357D" d="M190.493,55.868c0-0.189,0.165-0.343,0.343-0.343
		c0.189,0,0.342,0.154,0.342,0.343c0,0.19-0.152,0.343-0.342,0.343C190.658,56.211,190.493,56.058,190.493,55.868 M190.658,57.192
		h0.354v5.712h-0.354V57.192z"/>
	<path clip-path="url(#SVGID_2_)" fill="none" stroke="#27357D" stroke-width="0.425" stroke-miterlimit="10" d="M190.493,55.868
		c0-0.189,0.165-0.343,0.343-0.343c0.189,0,0.342,0.154,0.342,0.343c0,0.19-0.152,0.343-0.342,0.343
		C190.658,56.211,190.493,56.058,190.493,55.868z M190.658,57.192h0.354v5.712h-0.354V57.192z"/>
	<path clip-path="url(#SVGID_2_)" fill="#27357D" d="M192.799,60.043c0-1.68,1.053-2.992,2.66-2.992
		c1.621,0,2.662,1.312,2.662,2.992c0,1.679-1.041,3.003-2.662,3.003C193.852,63.046,192.799,61.722,192.799,60.043 M197.73,60.043
		c0-1.384-0.805-2.673-2.271-2.673c-1.454,0-2.27,1.289-2.27,2.673c0,1.395,0.815,2.684,2.27,2.684
		C196.926,62.727,197.73,61.438,197.73,60.043"/>
	<path clip-path="url(#SVGID_2_)" fill="none" stroke="#27357D" stroke-width="0.425" stroke-miterlimit="10" d="M192.799,60.043
		c0-1.68,1.053-2.992,2.66-2.992c1.621,0,2.662,1.312,2.662,2.992c0,1.679-1.041,3.003-2.662,3.003
		C193.852,63.046,192.799,61.722,192.799,60.043z M197.73,60.043c0-1.384-0.805-2.673-2.271-2.673c-1.454,0-2.27,1.289-2.27,2.673
		c0,1.395,0.815,2.684,2.27,2.684C196.926,62.727,197.73,61.438,197.73,60.043z"/>
	<path clip-path="url(#SVGID_2_)" fill="#27357D" d="M203.764,58.919c0-1.194-0.592-1.549-1.479-1.549
		c-0.78,0-1.62,0.509-2.021,1.076v4.458h-0.355v-5.712h0.355v0.899c0.426-0.52,1.276-1.04,2.068-1.04
		c1.135,0,1.785,0.52,1.785,1.868v3.985h-0.354V58.919z"/>
	<path clip-path="url(#SVGID_2_)" fill="none" stroke="#27357D" stroke-width="0.425" stroke-miterlimit="10" d="M203.764,58.919
		c0-1.194-0.592-1.549-1.479-1.549c-0.78,0-1.62,0.509-2.021,1.076v4.458h-0.355v-5.712h0.355v0.899
		c0.426-0.52,1.276-1.04,2.068-1.04c1.135,0,1.785,0.52,1.785,1.868v3.985h-0.354V58.919z"/>
	<path clip-path="url(#SVGID_2_)" fill="#27357D" d="M209.904,62.207c-0.532,0.58-1.172,0.839-1.977,0.839
		c-1.004,0-1.998-0.685-1.998-1.903c0-1.219,0.982-1.904,1.998-1.904c0.805,0,1.444,0.259,1.977,0.84v-1.29
		c0-0.922-0.733-1.419-1.608-1.419c-0.746,0-1.301,0.26-1.833,0.899l-0.273-0.236c0.557-0.651,1.148-0.982,2.106-0.982
		c1.123,0,1.962,0.568,1.962,1.727v4.127h-0.354V62.207z M209.904,60.433c-0.438-0.579-1.137-0.875-1.882-0.875
		c-1.04,0-1.702,0.698-1.702,1.585c0,0.887,0.662,1.584,1.702,1.584c0.745,0,1.443-0.295,1.882-0.875V60.433z"/>
	<path clip-path="url(#SVGID_2_)" fill="none" stroke="#27357D" stroke-width="0.425" stroke-miterlimit="10" d="M209.904,62.207
		c-0.532,0.58-1.172,0.839-1.977,0.839c-1.004,0-1.998-0.685-1.998-1.903c0-1.219,0.982-1.904,1.998-1.904
		c0.805,0,1.444,0.259,1.977,0.84v-1.29c0-0.922-0.733-1.419-1.608-1.419c-0.746,0-1.301,0.26-1.833,0.899l-0.273-0.236
		c0.557-0.651,1.148-0.982,2.106-0.982c1.123,0,1.962,0.568,1.962,1.727v4.127h-0.354V62.207z M209.904,60.433
		c-0.438-0.579-1.137-0.875-1.882-0.875c-1.04,0-1.702,0.698-1.702,1.585c0,0.887,0.662,1.584,1.702,1.584
		c0.745,0,1.443-0.295,1.882-0.875V60.433z"/>
	<rect x="212.353" y="55.017" clip-path="url(#SVGID_2_)" fill="#27357D" width="0.355" height="7.888"/>
	
		<rect x="212.353" y="55.017" clip-path="url(#SVGID_2_)" fill="none" stroke="#27357D" stroke-width="0.425" stroke-miterlimit="10" width="0.355" height="7.888"/>
	<polygon clip-path="url(#SVGID_2_)" fill="#27357D" points="219.463,55.371 216.802,55.371 216.802,55.017 222.514,55.017 
		222.514,55.371 219.841,55.371 219.841,62.904 219.463,62.904 	"/>
	<polygon clip-path="url(#SVGID_2_)" fill="none" stroke="#27357D" stroke-width="0.425" stroke-miterlimit="10" points="
		219.463,55.371 216.802,55.371 216.802,55.017 222.514,55.017 222.514,55.371 219.841,55.371 219.841,62.904 219.463,62.904 	"/>
	<path clip-path="url(#SVGID_2_)" fill="#27357D" d="M222.858,57.192h0.354v1.041c0.509-0.674,1.136-1.147,1.964-1.147v0.425
		c-0.106-0.011-0.178-0.011-0.284-0.011c-0.603,0-1.419,0.59-1.68,1.123v4.281h-0.354V57.192z"/>
	<path clip-path="url(#SVGID_2_)" fill="none" stroke="#27357D" stroke-width="0.425" stroke-miterlimit="10" d="M222.858,57.192
		h0.354v1.041c0.509-0.674,1.136-1.147,1.964-1.147v0.425c-0.106-0.011-0.178-0.011-0.284-0.011c-0.603,0-1.419,0.59-1.68,1.123
		v4.281h-0.354V57.192z"/>
	<path clip-path="url(#SVGID_2_)" fill="#27357D" d="M230.204,62.207c-0.532,0.58-1.171,0.839-1.977,0.839
		c-1.004,0-1.997-0.685-1.997-1.903c0-1.219,0.981-1.904,1.997-1.904c0.806,0,1.444,0.259,1.977,0.84v-1.29
		c0-0.922-0.733-1.419-1.608-1.419c-0.746,0-1.301,0.26-1.833,0.899l-0.272-0.236c0.556-0.651,1.147-0.982,2.105-0.982
		c1.123,0,1.962,0.568,1.962,1.727v4.127h-0.354V62.207z M230.204,60.433c-0.438-0.579-1.136-0.875-1.881-0.875
		c-1.04,0-1.703,0.698-1.703,1.585c0,0.887,0.663,1.584,1.703,1.584c0.745,0,1.442-0.295,1.881-0.875V60.433z"/>
	<path clip-path="url(#SVGID_2_)" fill="none" stroke="#27357D" stroke-width="0.425" stroke-miterlimit="10" d="M230.204,62.207
		c-0.532,0.58-1.171,0.839-1.977,0.839c-1.004,0-1.997-0.685-1.997-1.903c0-1.219,0.981-1.904,1.997-1.904
		c0.806,0,1.444,0.259,1.977,0.84v-1.29c0-0.922-0.733-1.419-1.608-1.419c-0.746,0-1.301,0.26-1.833,0.899l-0.272-0.236
		c0.556-0.651,1.147-0.982,2.105-0.982c1.123,0,1.962,0.568,1.962,1.727v4.127h-0.354V62.207z M230.204,60.433
		c-0.438-0.579-1.136-0.875-1.881-0.875c-1.04,0-1.703,0.698-1.703,1.585c0,0.887,0.663,1.584,1.703,1.584
		c0.745,0,1.442-0.295,1.881-0.875V60.433z"/>
	<path clip-path="url(#SVGID_2_)" fill="#27357D" d="M232.488,55.868c0-0.189,0.165-0.343,0.343-0.343
		c0.188,0,0.343,0.154,0.343,0.343c0,0.19-0.154,0.343-0.343,0.343C232.653,56.211,232.488,56.058,232.488,55.868 M232.653,57.192
		h0.354v5.712h-0.354V57.192z"/>
	<path clip-path="url(#SVGID_2_)" fill="none" stroke="#27357D" stroke-width="0.425" stroke-miterlimit="10" d="M232.488,55.868
		c0-0.189,0.165-0.343,0.343-0.343c0.188,0,0.343,0.154,0.343,0.343c0,0.19-0.154,0.343-0.343,0.343
		C232.653,56.211,232.488,56.058,232.488,55.868z M232.653,57.192h0.354v5.712h-0.354V57.192z"/>
	<path clip-path="url(#SVGID_2_)" fill="#27357D" d="M238.945,58.919c0-1.194-0.591-1.549-1.479-1.549
		c-0.779,0-1.62,0.509-2.021,1.076v4.458h-0.355v-5.712h0.355v0.899c0.426-0.52,1.275-1.04,2.068-1.04
		c1.136,0,1.785,0.52,1.785,1.868v3.985h-0.354V58.919z"/>
	<path clip-path="url(#SVGID_2_)" fill="none" stroke="#27357D" stroke-width="0.425" stroke-miterlimit="10" d="M238.945,58.919
		c0-1.194-0.591-1.549-1.479-1.549c-0.779,0-1.62,0.509-2.021,1.076v4.458h-0.355v-5.712h0.355v0.899
		c0.426-0.52,1.275-1.04,2.068-1.04c1.136,0,1.785,0.52,1.785,1.868v3.985h-0.354V58.919z"/>
	<path clip-path="url(#SVGID_2_)" fill="#27357D" d="M241.23,55.868c0-0.189,0.164-0.343,0.343-0.343
		c0.189,0,0.343,0.154,0.343,0.343c0,0.19-0.153,0.343-0.343,0.343C241.395,56.211,241.23,56.058,241.23,55.868 M241.395,57.192
		h0.355v5.712h-0.355V57.192z"/>
	<path clip-path="url(#SVGID_2_)" fill="none" stroke="#27357D" stroke-width="0.425" stroke-miterlimit="10" d="M241.23,55.868
		c0-0.189,0.164-0.343,0.343-0.343c0.189,0,0.343,0.154,0.343,0.343c0,0.19-0.153,0.343-0.343,0.343
		C241.395,56.211,241.23,56.058,241.23,55.868z M241.395,57.192h0.355v5.712h-0.355V57.192z"/>
	<path clip-path="url(#SVGID_2_)" fill="#27357D" d="M247.699,58.919c0-1.194-0.591-1.549-1.479-1.549
		c-0.779,0-1.62,0.509-2.021,1.076v4.458h-0.355v-5.712h0.355v0.899c0.426-0.52,1.275-1.04,2.068-1.04
		c1.136,0,1.785,0.52,1.785,1.868v3.985h-0.354V58.919z"/>
	<path clip-path="url(#SVGID_2_)" fill="none" stroke="#27357D" stroke-width="0.425" stroke-miterlimit="10" d="M247.699,58.919
		c0-1.194-0.591-1.549-1.479-1.549c-0.779,0-1.62,0.509-2.021,1.076v4.458h-0.355v-5.712h0.355v0.899
		c0.426-0.52,1.275-1.04,2.068-1.04c1.136,0,1.785,0.52,1.785,1.868v3.985h-0.354V58.919z"/>
	<path clip-path="url(#SVGID_2_)" fill="#27357D" d="M250.457,64.063c0.497,0.614,1.029,0.839,1.928,0.839
		c1.136,0,2.058-0.579,2.058-1.963v-0.993c-0.39,0.592-1.158,1.124-2.058,1.124c-1.537,0-2.554-1.195-2.554-3.004
		c0-1.798,1.017-3.016,2.554-3.016c0.852,0,1.597,0.45,2.058,1.124v-0.982h0.354v5.747c0,1.632-1.028,2.282-2.412,2.282
		c-0.959,0-1.525-0.165-2.188-0.863L250.457,64.063z M254.442,58.529c-0.354-0.604-1.171-1.159-2.058-1.159
		c-1.396,0-2.164,1.194-2.164,2.696s0.769,2.685,2.164,2.685c0.887,0,1.703-0.557,2.058-1.159V58.529z"/>
	<path clip-path="url(#SVGID_2_)" fill="none" stroke="#27357D" stroke-width="0.425" stroke-miterlimit="10" d="M250.457,64.063
		c0.497,0.614,1.029,0.839,1.928,0.839c1.136,0,2.058-0.579,2.058-1.963v-0.993c-0.39,0.592-1.158,1.124-2.058,1.124
		c-1.537,0-2.554-1.195-2.554-3.004c0-1.798,1.017-3.016,2.554-3.016c0.852,0,1.597,0.45,2.058,1.124v-0.982h0.354v5.747
		c0,1.632-1.028,2.282-2.412,2.282c-0.959,0-1.525-0.165-2.188-0.863L250.457,64.063z M254.442,58.529
		c-0.354-0.604-1.171-1.159-2.058-1.159c-1.396,0-2.164,1.194-2.164,2.696s0.769,2.685,2.164,2.685c0.887,0,1.703-0.557,2.058-1.159
		V58.529z"/>
	<path clip-path="url(#SVGID_2_)" fill="#27357D" d="M259.767,58.967c0-2.425,1.75-4.08,3.938-4.08c1.112,0,2.045,0.437,2.744,1.241
		l-0.296,0.261c-0.556-0.698-1.466-1.148-2.448-1.148c-1.975,0-3.523,1.502-3.523,3.726c0,2.199,1.549,3.725,3.523,3.725
		c0.982,0,1.893-0.45,2.448-1.148l0.308,0.249c-0.745,0.839-1.644,1.253-2.756,1.253C261.517,63.046,259.767,61.391,259.767,58.967"
		/>
	<path clip-path="url(#SVGID_2_)" fill="none" stroke="#27357D" stroke-width="0.425" stroke-miterlimit="10" d="M259.767,58.967
		c0-2.425,1.75-4.08,3.938-4.08c1.112,0,2.045,0.437,2.744,1.241l-0.296,0.261c-0.556-0.698-1.466-1.148-2.448-1.148
		c-1.975,0-3.523,1.502-3.523,3.726c0,2.199,1.549,3.725,3.523,3.725c0.982,0,1.893-0.45,2.448-1.148l0.308,0.249
		c-0.745,0.839-1.644,1.253-2.756,1.253C261.517,63.046,259.767,61.391,259.767,58.967z"/>
	<path clip-path="url(#SVGID_2_)" fill="#27357D" d="M269.562,57.051c1.751,0,2.649,1.407,2.649,2.992v0.118h-4.932
		c0.036,1.396,0.946,2.566,2.4,2.566c0.805,0,1.454-0.295,1.987-0.864l0.213,0.225c-0.58,0.604-1.243,0.958-2.2,0.958
		c-1.655,0-2.802-1.265-2.802-3.003C266.878,58.387,268.024,57.051,269.562,57.051 M267.279,59.842h4.553
		c0-1.1-0.721-2.472-2.282-2.472C268.084,57.37,267.315,58.718,267.279,59.842"/>
	<path clip-path="url(#SVGID_2_)" fill="none" stroke="#27357D" stroke-width="0.425" stroke-miterlimit="10" d="M269.562,57.051
		c1.751,0,2.649,1.407,2.649,2.992v0.118h-4.932c0.036,1.396,0.946,2.566,2.4,2.566c0.805,0,1.454-0.295,1.987-0.864l0.213,0.225
		c-0.58,0.604-1.243,0.958-2.2,0.958c-1.655,0-2.802-1.265-2.802-3.003C266.878,58.387,268.024,57.051,269.562,57.051z
		 M267.279,59.842h4.553c0-1.1-0.721-2.472-2.282-2.472C268.084,57.37,267.315,58.718,267.279,59.842z"/>
	<path clip-path="url(#SVGID_2_)" fill="#27357D" d="M277.854,58.919c0-1.194-0.591-1.549-1.479-1.549
		c-0.779,0-1.62,0.509-2.021,1.076v4.458h-0.355v-5.712h0.355v0.899c0.426-0.52,1.277-1.04,2.068-1.04
		c1.136,0,1.785,0.52,1.785,1.868v3.985h-0.354V58.919z"/>
	<path clip-path="url(#SVGID_2_)" fill="none" stroke="#27357D" stroke-width="0.425" stroke-miterlimit="10" d="M277.854,58.919
		c0-1.194-0.591-1.549-1.479-1.549c-0.779,0-1.62,0.509-2.021,1.076v4.458h-0.355v-5.712h0.355v0.899
		c0.426-0.52,1.277-1.04,2.068-1.04c1.136,0,1.785,0.52,1.785,1.868v3.985h-0.354V58.919z"/>
	<path clip-path="url(#SVGID_2_)" fill="#27357D" d="M280.375,61.899v-4.388h-0.946v-0.319h0.946v-1.561h0.354v1.561h1.16v0.319
		h-1.16v4.388c0,0.484,0.19,0.827,0.616,0.827c0.284,0,0.532-0.141,0.674-0.306l0.212,0.271c-0.224,0.213-0.46,0.354-0.886,0.354
		C280.683,63.045,280.375,62.608,280.375,61.899"/>
	<path clip-path="url(#SVGID_2_)" fill="none" stroke="#27357D" stroke-width="0.425" stroke-miterlimit="10" d="M280.375,61.899
		v-4.388h-0.946v-0.319h0.946v-1.561h0.354v1.561h1.16v0.319h-1.16v4.388c0,0.484,0.19,0.827,0.616,0.827
		c0.284,0,0.532-0.141,0.674-0.306l0.212,0.271c-0.224,0.213-0.46,0.354-0.886,0.354C280.683,63.045,280.375,62.608,280.375,61.899z
		"/>
	<path clip-path="url(#SVGID_2_)" fill="#27357D" d="M283.676,57.192h0.354v1.041c0.509-0.674,1.136-1.147,1.964-1.147v0.425
		c-0.106-0.011-0.178-0.011-0.284-0.011c-0.603,0-1.419,0.59-1.68,1.123v4.281h-0.354V57.192z"/>
	<path clip-path="url(#SVGID_2_)" fill="none" stroke="#27357D" stroke-width="0.425" stroke-miterlimit="10" d="M283.676,57.192
		h0.354v1.041c0.509-0.674,1.136-1.147,1.964-1.147v0.425c-0.106-0.011-0.178-0.011-0.284-0.011c-0.603,0-1.419,0.59-1.68,1.123
		v4.281h-0.354V57.192z"/>
	<path clip-path="url(#SVGID_2_)" fill="#27357D" d="M289.411,57.051c1.751,0,2.649,1.407,2.649,2.992v0.118h-4.932
		c0.036,1.396,0.946,2.566,2.4,2.566c0.805,0,1.454-0.295,1.987-0.864l0.213,0.225c-0.58,0.604-1.243,0.958-2.2,0.958
		c-1.655,0-2.802-1.265-2.802-3.003C286.728,58.387,287.874,57.051,289.411,57.051 M287.129,59.842h4.553
		c0-1.1-0.721-2.472-2.282-2.472C287.934,57.37,287.165,58.718,287.129,59.842"/>
	<path clip-path="url(#SVGID_2_)" fill="none" stroke="#27357D" stroke-width="0.425" stroke-miterlimit="10" d="M289.411,57.051
		c1.751,0,2.649,1.407,2.649,2.992v0.118h-4.932c0.036,1.396,0.946,2.566,2.4,2.566c0.805,0,1.454-0.295,1.987-0.864l0.213,0.225
		c-0.58,0.604-1.243,0.958-2.2,0.958c-1.655,0-2.802-1.265-2.802-3.003C286.728,58.387,287.874,57.051,289.411,57.051z
		 M287.129,59.842h4.553c0-1.1-0.721-2.472-2.282-2.472C287.934,57.37,287.165,58.718,287.129,59.842z"/>
	<path clip-path="url(#SVGID_2_)" fill="#27357D" d="M152.674,71.789h-0.946V71.47h0.946v-0.603c0-1.064,0.532-1.691,1.431-1.691
		c0.248,0,0.474,0.035,0.673,0.153l-0.152,0.308c-0.142-0.083-0.296-0.142-0.521-0.142c-0.722,0-1.077,0.509-1.077,1.372v0.603h1.16
		v0.319h-1.16v5.393h-0.354V71.789z"/>
	<path clip-path="url(#SVGID_2_)" fill="none" stroke="#27357D" stroke-width="0.425" stroke-miterlimit="10" d="M152.674,71.789
		h-0.946V71.47h0.946v-0.603c0-1.064,0.532-1.691,1.431-1.691c0.248,0,0.474,0.035,0.673,0.153l-0.152,0.308
		c-0.142-0.083-0.296-0.142-0.521-0.142c-0.722,0-1.077,0.509-1.077,1.372v0.603h1.16v0.319h-1.16v5.393h-0.354V71.789z"/>
	<path clip-path="url(#SVGID_2_)" fill="#27357D" d="M155.289,74.32c0-1.68,1.052-2.992,2.659-2.992
		c1.621,0,2.662,1.312,2.662,2.992c0,1.679-1.041,3.003-2.662,3.003C156.341,77.323,155.289,76,155.289,74.32 M160.22,74.32
		c0-1.384-0.804-2.673-2.271-2.673c-1.453,0-2.27,1.289-2.27,2.673c0,1.395,0.816,2.684,2.27,2.684
		C159.416,77.004,160.22,75.715,160.22,74.32"/>
	<path clip-path="url(#SVGID_2_)" fill="none" stroke="#27357D" stroke-width="0.425" stroke-miterlimit="10" d="M155.289,74.32
		c0-1.68,1.052-2.992,2.659-2.992c1.621,0,2.662,1.312,2.662,2.992c0,1.679-1.041,3.003-2.662,3.003
		C156.341,77.323,155.289,76,155.289,74.32z M160.22,74.32c0-1.384-0.804-2.673-2.271-2.673c-1.453,0-2.27,1.289-2.27,2.673
		c0,1.395,0.816,2.684,2.27,2.684C159.416,77.004,160.22,75.715,160.22,74.32z"/>
	<path clip-path="url(#SVGID_2_)" fill="#27357D" d="M162.516,71.47h0.354v1.041c0.509-0.674,1.136-1.147,1.964-1.147v0.425
		c-0.106-0.011-0.178-0.011-0.284-0.011c-0.603,0-1.419,0.59-1.68,1.123v4.281h-0.354V71.47z"/>
	<path clip-path="url(#SVGID_2_)" fill="none" stroke="#27357D" stroke-width="0.425" stroke-miterlimit="10" d="M162.516,71.47
		h0.354v1.041c0.509-0.674,1.136-1.147,1.964-1.147v0.425c-0.106-0.011-0.178-0.011-0.284-0.011c-0.603,0-1.419,0.59-1.68,1.123
		v4.281h-0.354V71.47z"/>
	<polygon clip-path="url(#SVGID_2_)" fill="#27357D" points="169.566,69.294 174.391,69.294 174.391,69.648 169.944,69.648 
		169.944,72.948 174.308,72.948 174.308,73.303 169.944,73.303 169.944,76.827 174.391,76.827 174.391,77.182 169.566,77.182 	"/>
	<polygon clip-path="url(#SVGID_2_)" fill="none" stroke="#27357D" stroke-width="0.425" stroke-miterlimit="10" points="
		169.566,69.294 174.391,69.294 174.391,69.648 169.944,69.648 169.944,72.948 174.308,72.948 174.308,73.303 169.944,73.303 
		169.944,76.827 174.391,76.827 174.391,77.182 169.566,77.182 	"/>
	<path clip-path="url(#SVGID_2_)" fill="#27357D" d="M180.164,73.196c0-1.194-0.591-1.549-1.479-1.549
		c-0.78,0-1.62,0.509-2.021,1.076v4.458h-0.355v-5.712h0.355v0.899c0.426-0.52,1.277-1.04,2.069-1.04
		c1.135,0,1.785,0.52,1.785,1.868v3.985h-0.354V73.196z"/>
	<path clip-path="url(#SVGID_2_)" fill="none" stroke="#27357D" stroke-width="0.425" stroke-miterlimit="10" d="M180.164,73.196
		c0-1.194-0.591-1.549-1.479-1.549c-0.78,0-1.62,0.509-2.021,1.076v4.458h-0.355v-5.712h0.355v0.899
		c0.426-0.52,1.277-1.04,2.069-1.04c1.135,0,1.785,0.52,1.785,1.868v3.985h-0.354V73.196z"/>
	<polygon clip-path="url(#SVGID_2_)" fill="#27357D" points="181.834,71.47 182.248,71.47 184.495,76.768 186.73,71.47 
		187.144,71.47 184.696,77.182 184.282,77.182 	"/>
	<polygon clip-path="url(#SVGID_2_)" fill="none" stroke="#27357D" stroke-width="0.425" stroke-miterlimit="10" points="
		181.834,71.47 182.248,71.47 184.495,76.768 186.73,71.47 187.144,71.47 184.696,77.182 184.282,77.182 	"/>
	<path clip-path="url(#SVGID_2_)" fill="#27357D" d="M188.293,70.146c0-0.19,0.165-0.343,0.343-0.343
		c0.189,0,0.343,0.153,0.343,0.343c0,0.189-0.153,0.342-0.343,0.342C188.458,70.488,188.293,70.335,188.293,70.146 M188.458,71.47
		h0.355v5.712h-0.355V71.47z"/>
	<path clip-path="url(#SVGID_2_)" fill="none" stroke="#27357D" stroke-width="0.425" stroke-miterlimit="10" d="M188.293,70.146
		c0-0.19,0.165-0.343,0.343-0.343c0.189,0,0.343,0.153,0.343,0.343c0,0.189-0.153,0.342-0.343,0.342
		C188.458,70.488,188.293,70.335,188.293,70.146z M188.458,71.47h0.355v5.712h-0.355V71.47z"/>
	<path clip-path="url(#SVGID_2_)" fill="#27357D" d="M191.013,71.47h0.354v1.041c0.509-0.674,1.136-1.147,1.964-1.147v0.425
		c-0.106-0.011-0.178-0.011-0.284-0.011c-0.603,0-1.419,0.59-1.68,1.123v4.281h-0.354V71.47z"/>
	<path clip-path="url(#SVGID_2_)" fill="none" stroke="#27357D" stroke-width="0.425" stroke-miterlimit="10" d="M191.013,71.47
		h0.354v1.041c0.509-0.674,1.136-1.147,1.964-1.147v0.425c-0.106-0.011-0.178-0.011-0.284-0.011c-0.603,0-1.419,0.59-1.68,1.123
		v4.281h-0.354V71.47z"/>
	<path clip-path="url(#SVGID_2_)" fill="#27357D" d="M194.479,74.32c0-1.68,1.052-2.992,2.659-2.992
		c1.621,0,2.662,1.312,2.662,2.992c0,1.679-1.041,3.003-2.662,3.003C195.531,77.323,194.479,76,194.479,74.32 M199.41,74.32
		c0-1.384-0.804-2.673-2.271-2.673c-1.453,0-2.27,1.289-2.27,2.673c0,1.395,0.816,2.684,2.27,2.684
		C198.606,77.004,199.41,75.715,199.41,74.32"/>
	<path clip-path="url(#SVGID_2_)" fill="none" stroke="#27357D" stroke-width="0.425" stroke-miterlimit="10" d="M194.479,74.32
		c0-1.68,1.052-2.992,2.659-2.992c1.621,0,2.662,1.312,2.662,2.992c0,1.679-1.041,3.003-2.662,3.003
		C195.531,77.323,194.479,76,194.479,74.32z M199.41,74.32c0-1.384-0.804-2.673-2.271-2.673c-1.453,0-2.27,1.289-2.27,2.673
		c0,1.395,0.816,2.684,2.27,2.684C198.606,77.004,199.41,75.715,199.41,74.32z"/>
	<path clip-path="url(#SVGID_2_)" fill="#27357D" d="M205.563,73.196c0-1.194-0.591-1.549-1.479-1.549
		c-0.78,0-1.62,0.509-2.021,1.076v4.458h-0.355v-5.712h0.355v0.899c0.426-0.52,1.277-1.04,2.069-1.04
		c1.135,0,1.784,0.52,1.784,1.868v3.985h-0.354V73.196z"/>
	<path clip-path="url(#SVGID_2_)" fill="none" stroke="#27357D" stroke-width="0.425" stroke-miterlimit="10" d="M205.563,73.196
		c0-1.194-0.591-1.549-1.479-1.549c-0.78,0-1.62,0.509-2.021,1.076v4.458h-0.355v-5.712h0.355v0.899
		c0.426-0.52,1.277-1.04,2.069-1.04c1.135,0,1.784,0.52,1.784,1.868v3.985h-0.354V73.196z"/>
	<path clip-path="url(#SVGID_2_)" fill="#27357D" d="M214.836,73.066c0-0.887-0.367-1.419-1.23-1.419
		c-0.639,0-1.419,0.484-1.773,1.065v4.469h-0.355v-4.115c0-0.887-0.366-1.419-1.229-1.419c-0.64,0-1.396,0.496-1.773,1.076v4.458
		h-0.355v-5.712h0.355v0.899c0.236-0.378,1.017-1.04,1.833-1.04c0.898,0,1.359,0.555,1.478,1.088
		c0.319-0.533,1.088-1.088,1.881-1.088c1.04,0,1.524,0.602,1.524,1.738v4.115h-0.354V73.066z"/>
	<path clip-path="url(#SVGID_2_)" fill="none" stroke="#27357D" stroke-width="0.425" stroke-miterlimit="10" d="M214.836,73.066
		c0-0.887-0.367-1.419-1.23-1.419c-0.639,0-1.419,0.484-1.773,1.065v4.469h-0.355v-4.115c0-0.887-0.366-1.419-1.229-1.419
		c-0.64,0-1.396,0.496-1.773,1.076v4.458h-0.355v-5.712h0.355v0.899c0.236-0.378,1.017-1.04,1.833-1.04
		c0.898,0,1.359,0.555,1.478,1.088c0.319-0.533,1.088-1.088,1.881-1.088c1.04,0,1.524,0.602,1.524,1.738v4.115h-0.354V73.066z"/>
	<path clip-path="url(#SVGID_2_)" fill="#27357D" d="M219.782,71.328c1.751,0,2.649,1.407,2.649,2.992v0.118H217.5
		c0.036,1.396,0.946,2.566,2.4,2.566c0.805,0,1.455-0.295,1.987-0.864l0.213,0.225c-0.579,0.604-1.242,0.958-2.2,0.958
		c-1.655,0-2.802-1.265-2.802-3.003C217.099,72.664,218.245,71.328,219.782,71.328 M217.5,74.119h4.553
		c0-1.1-0.721-2.472-2.281-2.472C218.305,71.647,217.536,72.995,217.5,74.119"/>
	<path clip-path="url(#SVGID_2_)" fill="none" stroke="#27357D" stroke-width="0.425" stroke-miterlimit="10" d="M219.782,71.328
		c1.751,0,2.649,1.407,2.649,2.992v0.118H217.5c0.036,1.396,0.946,2.566,2.4,2.566c0.805,0,1.455-0.295,1.987-0.864l0.213,0.225
		c-0.579,0.604-1.242,0.958-2.2,0.958c-1.655,0-2.802-1.265-2.802-3.003C217.099,72.664,218.245,71.328,219.782,71.328z
		 M217.5,74.119h4.553c0-1.1-0.721-2.472-2.281-2.472C218.305,71.647,217.536,72.995,217.5,74.119z"/>
	<path clip-path="url(#SVGID_2_)" fill="#27357D" d="M228.192,73.196c0-1.194-0.591-1.549-1.479-1.549
		c-0.78,0-1.62,0.509-2.021,1.076v4.458h-0.354v-5.712h0.354v0.899c0.426-0.52,1.276-1.04,2.069-1.04
		c1.135,0,1.785,0.52,1.785,1.868v3.985h-0.354V73.196z"/>
	<path clip-path="url(#SVGID_2_)" fill="none" stroke="#27357D" stroke-width="0.425" stroke-miterlimit="10" d="M228.192,73.196
		c0-1.194-0.591-1.549-1.479-1.549c-0.78,0-1.62,0.509-2.021,1.076v4.458h-0.354v-5.712h0.354v0.899
		c0.426-0.52,1.276-1.04,2.069-1.04c1.135,0,1.785,0.52,1.785,1.868v3.985h-0.354V73.196z"/>
	<path clip-path="url(#SVGID_2_)" fill="#27357D" d="M230.82,76.177v-4.388h-0.946V71.47h0.946v-1.561h0.354v1.561h1.16v0.319h-1.16
		v4.388c0,0.484,0.19,0.827,0.616,0.827c0.284,0,0.532-0.141,0.674-0.306l0.213,0.271c-0.225,0.213-0.46,0.354-0.887,0.354
		C231.128,77.323,230.82,76.886,230.82,76.177"/>
	<path clip-path="url(#SVGID_2_)" fill="none" stroke="#27357D" stroke-width="0.425" stroke-miterlimit="10" d="M230.82,76.177
		v-4.388h-0.946V71.47h0.946v-1.561h0.354v1.561h1.16v0.319h-1.16v4.388c0,0.484,0.19,0.827,0.616,0.827
		c0.284,0,0.532-0.141,0.674-0.306l0.213,0.271c-0.225,0.213-0.46,0.354-0.887,0.354C231.128,77.323,230.82,76.886,230.82,76.177z"
		/>
	<path clip-path="url(#SVGID_2_)" fill="#27357D" d="M237.645,76.484c-0.532,0.58-1.171,0.839-1.976,0.839
		c-1.005,0-1.998-0.685-1.998-1.903c0-1.219,0.981-1.904,1.998-1.904c0.805,0,1.443,0.259,1.976,0.84v-1.29
		c0-0.922-0.733-1.419-1.608-1.419c-0.746,0-1.301,0.26-1.833,0.899l-0.272-0.236c0.556-0.651,1.147-0.982,2.105-0.982
		c1.123,0,1.962,0.568,1.962,1.727v4.127h-0.354V76.484z M237.645,74.71c-0.438-0.579-1.136-0.875-1.881-0.875
		c-1.04,0-1.703,0.698-1.703,1.585c0,0.887,0.663,1.584,1.703,1.584c0.745,0,1.442-0.295,1.881-0.875V74.71z"/>
	<path clip-path="url(#SVGID_2_)" fill="none" stroke="#27357D" stroke-width="0.425" stroke-miterlimit="10" d="M237.645,76.484
		c-0.532,0.58-1.171,0.839-1.976,0.839c-1.005,0-1.998-0.685-1.998-1.903c0-1.219,0.981-1.904,1.998-1.904
		c0.805,0,1.443,0.259,1.976,0.84v-1.29c0-0.922-0.733-1.419-1.608-1.419c-0.746,0-1.301,0.26-1.833,0.899l-0.272-0.236
		c0.556-0.651,1.147-0.982,2.105-0.982c1.123,0,1.962,0.568,1.962,1.727v4.127h-0.354V76.484z M237.645,74.71
		c-0.438-0.579-1.136-0.875-1.881-0.875c-1.04,0-1.703,0.698-1.703,1.585c0,0.887,0.663,1.584,1.703,1.584
		c0.745,0,1.442-0.295,1.881-0.875V74.71z"/>
	<rect x="240.213" y="69.294" clip-path="url(#SVGID_2_)" fill="#27357D" width="0.355" height="7.888"/>
	
		<rect x="240.213" y="69.294" clip-path="url(#SVGID_2_)" fill="none" stroke="#27357D" stroke-width="0.425" stroke-miterlimit="10" width="0.355" height="7.888"/>
	<path clip-path="url(#SVGID_2_)" fill="#27357D" d="M248.315,73.775h-1.893v3.406h-0.378v-7.887h2.72
		c1.277,0,2.329,0.791,2.329,2.235c0,1.442-1.052,2.246-2.329,2.246l2.436,3.406h-0.484L248.315,73.775z M248.765,69.648h-2.342
		v3.772h2.342c1.159,0,1.915-0.803,1.915-1.891C250.68,70.441,249.924,69.648,248.765,69.648"/>
	<path clip-path="url(#SVGID_2_)" fill="none" stroke="#27357D" stroke-width="0.425" stroke-miterlimit="10" d="M248.315,73.775
		h-1.893v3.406h-0.378v-7.887h2.72c1.277,0,2.329,0.791,2.329,2.235c0,1.442-1.052,2.246-2.329,2.246l2.436,3.406h-0.484
		L248.315,73.775z M248.765,69.648h-2.342v3.772h2.342c1.159,0,1.915-0.803,1.915-1.891
		C250.68,70.441,249.924,69.648,248.765,69.648z"/>
	<path clip-path="url(#SVGID_2_)" fill="#27357D" d="M255.069,71.328c1.751,0,2.649,1.407,2.649,2.992v0.118h-4.932
		c0.036,1.396,0.946,2.566,2.4,2.566c0.805,0,1.455-0.295,1.987-0.864l0.213,0.225c-0.579,0.604-1.242,0.958-2.2,0.958
		c-1.655,0-2.802-1.265-2.802-3.003C252.386,72.664,253.532,71.328,255.069,71.328 M252.787,74.119h4.553
		c0-1.1-0.721-2.472-2.281-2.472C253.592,71.647,252.823,72.995,252.787,74.119"/>
	<path clip-path="url(#SVGID_2_)" fill="none" stroke="#27357D" stroke-width="0.425" stroke-miterlimit="10" d="M255.069,71.328
		c1.751,0,2.649,1.407,2.649,2.992v0.118h-4.932c0.036,1.396,0.946,2.566,2.4,2.566c0.805,0,1.455-0.295,1.987-0.864l0.213,0.225
		c-0.579,0.604-1.242,0.958-2.2,0.958c-1.655,0-2.802-1.265-2.802-3.003C252.386,72.664,253.532,71.328,255.069,71.328z
		 M252.787,74.119h4.553c0-1.1-0.721-2.472-2.281-2.472C253.592,71.647,252.823,72.995,252.787,74.119z"/>
	<path clip-path="url(#SVGID_2_)" fill="#27357D" d="M259.412,76.152c0.355,0.474,0.97,0.852,1.81,0.852
		c1.053,0,1.691-0.568,1.691-1.325c0-0.839-0.852-1.064-1.727-1.3c-0.946-0.248-1.939-0.498-1.939-1.538
		c0-0.839,0.709-1.513,1.939-1.513c0.981,0,1.597,0.389,1.963,0.863l-0.26,0.236c-0.331-0.472-0.935-0.78-1.703-0.78
		c-0.993,0-1.585,0.521-1.585,1.194c0,0.746,0.793,0.934,1.632,1.16c0.981,0.248,2.034,0.519,2.034,1.678
		c0,0.887-0.662,1.644-2.046,1.644c-0.898,0-1.525-0.26-2.093-0.91L259.412,76.152z"/>
	<path clip-path="url(#SVGID_2_)" fill="none" stroke="#27357D" stroke-width="0.425" stroke-miterlimit="10" d="M259.412,76.152
		c0.355,0.474,0.97,0.852,1.81,0.852c1.053,0,1.691-0.568,1.691-1.325c0-0.839-0.852-1.064-1.727-1.3
		c-0.946-0.248-1.939-0.498-1.939-1.538c0-0.839,0.709-1.513,1.939-1.513c0.981,0,1.597,0.389,1.963,0.863l-0.26,0.236
		c-0.331-0.472-0.935-0.78-1.703-0.78c-0.993,0-1.585,0.521-1.585,1.194c0,0.746,0.793,0.934,1.632,1.16
		c0.981,0.248,2.034,0.519,2.034,1.678c0,0.887-0.662,1.644-2.046,1.644c-0.898,0-1.525-0.26-2.093-0.91L259.412,76.152z"/>
	<path clip-path="url(#SVGID_2_)" fill="#27357D" d="M267.55,71.328c1.751,0,2.649,1.407,2.649,2.992v0.118h-4.932
		c0.036,1.396,0.946,2.566,2.4,2.566c0.805,0,1.455-0.295,1.987-0.864l0.213,0.225c-0.579,0.604-1.242,0.958-2.2,0.958
		c-1.655,0-2.802-1.265-2.802-3.003C264.866,72.664,266.013,71.328,267.55,71.328 M265.268,74.119h4.553
		c0-1.1-0.721-2.472-2.281-2.472C266.072,71.647,265.304,72.995,265.268,74.119"/>
	<path clip-path="url(#SVGID_2_)" fill="none" stroke="#27357D" stroke-width="0.425" stroke-miterlimit="10" d="M267.55,71.328
		c1.751,0,2.649,1.407,2.649,2.992v0.118h-4.932c0.036,1.396,0.946,2.566,2.4,2.566c0.805,0,1.455-0.295,1.987-0.864l0.213,0.225
		c-0.579,0.604-1.242,0.958-2.2,0.958c-1.655,0-2.802-1.265-2.802-3.003C264.866,72.664,266.013,71.328,267.55,71.328z
		 M265.268,74.119h4.553c0-1.1-0.721-2.472-2.281-2.472C266.072,71.647,265.304,72.995,265.268,74.119z"/>
	<path clip-path="url(#SVGID_2_)" fill="#27357D" d="M275.796,76.484c-0.532,0.58-1.171,0.839-1.976,0.839
		c-1.005,0-1.998-0.685-1.998-1.903c0-1.219,0.981-1.904,1.998-1.904c0.805,0,1.443,0.259,1.976,0.84v-1.29
		c0-0.922-0.733-1.419-1.608-1.419c-0.746,0-1.301,0.26-1.833,0.899l-0.272-0.236c0.556-0.651,1.147-0.982,2.105-0.982
		c1.123,0,1.962,0.568,1.962,1.727v4.127h-0.354V76.484z M275.796,74.71c-0.438-0.579-1.136-0.875-1.881-0.875
		c-1.04,0-1.703,0.698-1.703,1.585c0,0.887,0.663,1.584,1.703,1.584c0.745,0,1.442-0.295,1.881-0.875V74.71z"/>
	<path clip-path="url(#SVGID_2_)" fill="none" stroke="#27357D" stroke-width="0.425" stroke-miterlimit="10" d="M275.796,76.484
		c-0.532,0.58-1.171,0.839-1.976,0.839c-1.005,0-1.998-0.685-1.998-1.903c0-1.219,0.981-1.904,1.998-1.904
		c0.805,0,1.443,0.259,1.976,0.84v-1.29c0-0.922-0.733-1.419-1.608-1.419c-0.746,0-1.301,0.26-1.833,0.899l-0.272-0.236
		c0.556-0.651,1.147-0.982,2.105-0.982c1.123,0,1.962,0.568,1.962,1.727v4.127h-0.354V76.484z M275.796,74.71
		c-0.438-0.579-1.136-0.875-1.881-0.875c-1.04,0-1.703,0.698-1.703,1.585c0,0.887,0.663,1.584,1.703,1.584
		c0.745,0,1.442-0.295,1.881-0.875V74.71z"/>
	<path clip-path="url(#SVGID_2_)" fill="#27357D" d="M278.363,71.47h0.355v1.041c0.508-0.674,1.135-1.147,1.963-1.147v0.425
		c-0.106-0.011-0.178-0.011-0.284-0.011c-0.603,0-1.419,0.59-1.679,1.123v4.281h-0.355V71.47z"/>
	<path clip-path="url(#SVGID_2_)" fill="none" stroke="#27357D" stroke-width="0.425" stroke-miterlimit="10" d="M278.363,71.47
		h0.355v1.041c0.508-0.674,1.135-1.147,1.963-1.147v0.425c-0.106-0.011-0.178-0.011-0.284-0.011c-0.603,0-1.419,0.59-1.679,1.123
		v4.281h-0.355V71.47z"/>
	<path clip-path="url(#SVGID_2_)" fill="#27357D" d="M284.525,71.328c0.935,0,1.467,0.354,1.952,0.958l-0.261,0.213
		c-0.461-0.627-1.005-0.852-1.667-0.852c-1.467,0-2.33,1.183-2.33,2.673c0,1.489,0.863,2.684,2.33,2.684
		c0.662,0,1.206-0.237,1.667-0.864l0.261,0.225c-0.485,0.604-1.018,0.958-1.952,0.958c-1.655,0-2.695-1.359-2.695-3.003
		S282.87,71.328,284.525,71.328"/>
	<path clip-path="url(#SVGID_2_)" fill="none" stroke="#27357D" stroke-width="0.425" stroke-miterlimit="10" d="M284.525,71.328
		c0.935,0,1.467,0.354,1.952,0.958l-0.261,0.213c-0.461-0.627-1.005-0.852-1.667-0.852c-1.467,0-2.33,1.183-2.33,2.673
		c0,1.489,0.863,2.684,2.33,2.684c0.662,0,1.206-0.237,1.667-0.864l0.261,0.225c-0.485,0.604-1.018,0.958-1.952,0.958
		c-1.655,0-2.695-1.359-2.695-3.003S282.87,71.328,284.525,71.328z"/>
	<path clip-path="url(#SVGID_2_)" fill="#27357D" d="M292.002,73.173c0-1.194-0.591-1.525-1.479-1.525
		c-0.78,0-1.62,0.508-2.021,1.076v4.458h-0.354v-7.888h0.354v3.074c0.426-0.519,1.277-1.04,2.069-1.04
		c1.135,0,1.785,0.496,1.785,1.845v4.009h-0.354V73.173z"/>
	<path clip-path="url(#SVGID_2_)" fill="none" stroke="#27357D" stroke-width="0.425" stroke-miterlimit="10" d="M292.002,73.173
		c0-1.194-0.591-1.525-1.479-1.525c-0.78,0-1.62,0.508-2.021,1.076v4.458h-0.354v-7.888h0.354v3.074
		c0.426-0.519,1.277-1.04,2.069-1.04c1.135,0,1.785,0.496,1.785,1.845v4.009h-0.354V73.173z"/>
</g>
</svg>
